Coordinates
version=1
nRows=60
nColumns=12
inDegrees=yes

Units are S.I. units (second, meters, Newtons, ...)
Angles are in degrees

endheader
time	SC_y	SC_z	SC_x	AC_y	AC_z	AC_x	GH_y	GH_z	GH_yy	EL_x	PS_y
       0.0              -25.18          31.96          25.04          64.61          4.701         -6.691          107.7          23.11         -79.57          11.59           44.9
  0.008921              -25.18          31.96          25.04           64.6          4.702         -6.689          107.7          23.11         -79.58          11.61          44.89
   0.01784              -25.19          31.96          25.04           64.6          4.702         -6.688          107.7          23.12          -79.6          11.63          44.89
   0.02676              -25.19          31.96          25.04          64.59          4.703         -6.686          107.7          23.12         -79.61          11.65          44.88
   0.03568              -25.19          31.95          25.05          64.59          4.704         -6.684          107.7          23.13         -79.63          11.67          44.87
    0.0446              -25.19          31.95          25.05          64.58          4.704         -6.682          107.7          23.13         -79.65          11.69          44.87
   0.05353               -25.2          31.95          25.06          64.58          4.705          -6.68          107.6          23.14         -79.67          11.72          44.86
   0.06245               -25.2          31.94          25.06          64.57          4.706         -6.678          107.6          23.15         -79.69          11.74          44.85
   0.07137               -25.2          31.94          25.06          64.56          4.707         -6.675          107.6          23.16         -79.71          11.77          44.84
   0.08029              -25.21          31.93          25.07          64.56          4.708         -6.673          107.6          23.16         -79.73           11.8          44.83
   0.08921              -25.21          31.93          25.07          64.55          4.709          -6.67          107.6          23.17         -79.76          11.83          44.82
   0.09813              -25.21          31.93          25.08          64.54           4.71         -6.667          107.6          23.18         -79.79          11.87          44.81
    0.1071              -25.22          31.92          25.09          64.53          4.711         -6.664          107.5          23.19         -79.82           11.9           44.8
     0.116              -25.22          31.91          25.09          64.52          4.712          -6.66          107.5           23.2         -79.85          11.94          44.79
    0.1249              -25.23          31.91           25.1          64.51          4.713         -6.656          107.5          23.21         -79.88          11.99          44.77
    0.1338              -25.23           31.9          25.11           64.5          4.715         -6.652          107.4          23.23         -79.92          12.03          44.76
    0.1427              -25.24           31.9          25.12          64.49          4.716         -6.648          107.4          23.24         -79.96          12.08          44.74
    0.1517              -25.25          31.89          25.12          64.48          4.718         -6.643          107.4          23.25          -80.0          12.14          44.73
    0.1606              -25.25          31.88          25.13          64.46           4.72         -6.638          107.3          23.27         -80.05           12.2          44.71
    0.1695              -25.26          31.87          25.15          64.44          4.722         -6.632          107.3          23.29         -80.11          12.27          44.69
    0.1784              -25.27          31.86          25.16          64.43          4.724         -6.625          107.3          23.31         -80.16          12.34          44.66
    0.1873              -25.28          31.85          25.17          64.41          4.727         -6.618          107.2          23.33         -80.23          12.42          44.64
    0.1963              -25.29          31.84          25.18          64.39           4.73         -6.611          107.2          23.35          -80.3          12.51          44.61
    0.2052               -25.3          31.82           25.2          64.36          4.733         -6.602          107.1          23.38         -80.38          12.61          44.58
    0.2141              -25.31          31.81          25.22          64.34          4.736         -6.592          107.0          23.41         -80.46          12.72          44.54
     0.223              -25.33          31.79          25.24          64.31           4.74         -6.582          106.9          23.44         -80.56          12.84          44.51
    0.2319              -25.34          31.77          25.26          64.27          4.744          -6.57          106.9          23.48         -80.67          12.97          44.46
    0.2409              -25.36          31.75          25.29          64.24          4.749         -6.556          106.8          23.52         -80.79          13.13          44.41
    0.2498              -25.38          31.73          25.31           64.2          4.754         -6.541          106.7          23.56         -80.93           13.3          44.36
    0.2587               -25.4           31.7          25.35          64.15          4.761         -6.524          106.5          23.62         -81.08           13.5           44.3
    0.2676              -25.43          31.67          25.38          64.09          4.768         -6.504          106.4          23.68         -81.26          13.72          44.23
    0.2765              -25.46          31.63          25.42          64.03          4.776         -6.482          106.2          23.75         -81.47          13.98          44.14
    0.2855               -25.5          31.59          25.47          63.96          4.785         -6.456          106.1          23.83          -81.7          14.28          44.05
    0.2944              -25.54          31.55          25.53          63.88          4.796         -6.425          105.8          23.92         -81.98          14.62          43.94
    0.3033              -25.58          31.49           25.6          63.78          4.808          -6.39          105.6          24.03          -82.3          15.03          43.81
    0.3122              -25.64          31.42          25.67          63.66          4.823         -6.348          105.3          24.15         -82.68          15.51          43.66
    0.3212              -25.71          31.35          25.77          63.53          4.841         -6.299          104.9          24.31         -83.13          16.07          43.48
    0.3301              -25.79          31.25          25.88          63.36          4.862         -6.239          104.5          24.49         -83.67          16.75          43.27
     0.339              -25.88          31.14          26.01          63.17          4.888         -6.167          104.0          24.71         -84.33          17.58          43.01
    0.3479               -26.0           31.0          26.17          62.92          4.919         -6.079          103.4          24.98         -85.12          18.58          42.69
    0.3568              -26.15          30.83          26.38          62.63          4.958          -5.97          102.6          25.31         -86.11          19.82           42.3
    0.3658              -26.33          30.62          26.63          62.25          5.006         -5.835          101.6          25.72         -87.34          21.37          41.81
    0.3747              -26.56          30.35          26.95          61.78          5.067         -5.665          100.4          26.24         -88.89          23.32          41.19
    0.3836              -26.85          30.01          27.35          61.19          5.144         -5.448          98.89           26.9         -90.85           25.8          40.41
    0.3925              -27.22          29.57          27.87          60.43          5.243          -5.17          96.92          27.75         -93.37          28.97          39.41
    0.4014               -27.7          29.01          28.53          59.45           5.37         -4.814          94.39          28.84         -96.61          33.04          38.12
    0.4104              -28.31          28.29          29.37          58.19          5.532         -4.359          91.16          30.23         -100.7          38.23          36.48
    0.4193              -29.08          27.39          30.44          56.62          5.736         -3.787           87.1          31.97         -105.9          44.77          34.41
    0.4282              -30.02          26.29          31.74          54.71          5.984          -3.09          82.15           34.1         -112.3          52.73           31.9
    0.4371               -31.1          25.02          33.24          52.48          6.272         -2.283          76.41          36.57         -119.6          61.96          28.98
     0.446              -32.27          23.65          34.87          50.08          6.584         -1.408          70.19          39.24         -127.5          71.96          25.82
     0.455              -33.45          22.27           36.5          47.67          6.896         -0.533          63.98          41.91         -135.5          81.95          22.66
    0.4639              -34.53           21.0           38.0          45.45          7.184         0.2749          58.24          44.38         -142.8          91.19          19.74
    0.4728              -35.47           19.9           39.3          43.53          7.432         0.9718          53.29          46.51         -149.1          99.15          17.22
    0.4817              -36.24           19.0          40.36          41.96          7.636          1.544          49.23          48.25         -154.3          105.7          15.16
    0.4906              -36.85          18.28          41.21          40.71          7.798          1.999           46.0          49.64         -158.5          110.9          13.52
    0.4996              -37.33          17.72          41.87          39.73          7.925          2.355          43.47          50.73         -161.7          115.0          12.23
    0.5085               -37.7          17.29          42.39          38.97          8.024          2.632           41.5          51.58         -164.2          118.1          11.23
    0.5174              -37.99          16.94          42.79          38.37          8.101          2.849          39.96          52.24         -166.2          120.6          10.44
    0.5263              -38.22          16.68          43.11           37.9          8.162           3.02          38.74          52.76         -167.7          122.5          9.828
